<?xml version="1.0" encoding="UTF-8" standalone="no"?>
<!DOCTYPE svg PUBLIC "-//W3C//DTD SVG 1.1//EN"
 "http://www.w3.org/Graphics/SVG/1.1/DTD/svg11.dtd">
<!-- Generated by graphviz version 2.26.3 (20100126.1600)
 -->
<!-- Title: G Pages: 1 -->
<svg width="342pt" height="98pt"
 viewBox="0.00 0.00 342.00 98.00" xmlns="http://www.w3.org/2000/svg" xmlns:xlink="http://www.w3.org/1999/xlink">
<g id="graph1" class="graph" transform="scale(1 1) rotate(0) translate(4 94)">
<title>G</title>
<polygon fill="white" stroke="white" points="-4,5 -4,-94 339,-94 339,5 -4,5"/>
<g id="graph2" class="cluster"><title>cluster_Global</title>
<polyline fill="none" stroke="gray" points="256,-8 314,-8 "/>
<path fill="none" stroke="gray" d="M314,-8C320,-8 326,-14 326,-20"/>
<polyline fill="none" stroke="gray" points="326,-20 326,-70 "/>
<path fill="none" stroke="gray" d="M326,-70C326,-76 320,-82 314,-82"/>
<polyline fill="none" stroke="gray" points="314,-82 256,-82 "/>
<path fill="none" stroke="gray" d="M256,-82C250,-82 244,-76 244,-70"/>
<polyline fill="none" stroke="gray" points="244,-70 244,-20 "/>
<path fill="none" stroke="gray" d="M244,-20C244,-14 250,-8 256,-8"/>
<text text-anchor="middle" x="285" y="-68.1" font-family="Times Roman,serif" font-size="11.00" fill="gray">\</text>
</g>
<!-- \\REVIEWS -->
<g id="node2" class="node"><title>\\REVIEWS</title>
<polygon fill="none" stroke="black" points="318,-52 252,-52 252,-16 318,-16 318,-52"/>
<text text-anchor="middle" x="285" y="-31.1" font-family="Times Roman,serif" font-size="11.00">REVIEWS</text>
</g>
<!-- \\CONTROLLERS -->
<g id="node4" class="node"><title>\\CONTROLLERS</title>
<ellipse fill="none" stroke="black" cx="90" cy="-34" rx="89.8026" ry="18.3848"/>
<text text-anchor="middle" x="90" y="-30.4" font-family="Times Roman,serif" font-size="14.00" fill="gray">\CONTROLLERS</text>
</g>
<!-- \\REVIEWS&#45;&gt;\\CONTROLLERS -->
<g id="edge3" class="edge"><title>\\REVIEWS&#45;&gt;\\CONTROLLERS</title>
<path fill="none" stroke="black" d="M251.921,-34C234.677,-34 212.567,-34 190.264,-34"/>
<polygon fill="none" stroke="black" points="190.02,-30.5001 180.02,-34 190.019,-37.5001 190.02,-30.5001"/>
</g>
</g>
</svg>
